<svg width="32" height="32" viewBox="0 0 32 32" fill="none" xmlns="http://www.w3.org/2000/svg">
<path d="M17.181 11.8273H15.0646L11.7031 2.24096L13.5706 1.61847L17.181 11.8273Z" fill="#1E3CD4"/>
<path d="M9.46173 2.98795L12.8232 10.3333L10.0842 8.96384L7.84326 3.98393L9.46173 2.98795Z" fill="#1E3CD4"/>
<path d="M13.814 12.2746L12.3017 13.7552L3.1933 9.25699L4.0922 7.50573L13.814 12.2746Z" fill="#1E3CD4"/>
<path d="M2.11448 11.3585L9.65513 14.2555L6.73995 15.1931L1.65479 13.2025L2.11448 11.3585Z" fill="#1E3CD4"/>
<path d="M11.9507 14.6908L11.9821 16.807L2.44664 20.3102L1.79653 18.4522L11.9507 14.6908Z" fill="#1E3CD4"/>
<path d="M3.22698 22.5398L10.5217 19.0698L9.19299 21.8288L4.24685 24.1433L3.22698 22.5398Z" fill="#1E3CD4"/>
<path d="M12.4824 17.9277L13.9718 19.4314L9.52626 28.5657L7.76983 27.6769L12.4824 17.9277Z" fill="#1E3CD4"/>
<path d="M11.634 29.6322L14.4874 22.0749L15.4418 24.9846L13.4806 30.0812L11.634 29.6322Z" fill="#1E3CD4"/>
<path d="M14.9399 20.0242L17.0562 20.0005L20.5248 29.5486L18.6644 30.192L14.9399 20.0242Z" fill="#1E3CD4"/>
<path d="M22.7566 28.7766L19.3131 21.4693L22.0673 22.808L24.3638 27.7625L22.7566 28.7766Z" fill="#1E3CD4"/>
<path d="M18.1768 19.5736L19.6681 18.0717L28.839 22.441L27.9649 24.2047L18.1768 19.5736Z" fill="#1E3CD4"/>
<path d="M29.8879 20.3245L22.3072 17.5342L25.2088 16.5556L30.3216 18.4742L29.8879 20.3245Z" fill="#1E3CD4"/>
<path d="M20.1935 17.0833L20.1878 14.9668L29.7652 11.5799L30.3927 13.4457L20.1935 17.0833Z" fill="#1E3CD4"/>
<path d="M29.0126 9.34097L21.6762 12.7219L23.0384 9.97934L28.0123 7.72515L29.0126 9.34097Z" fill="#1E3CD4"/>
<path d="M19.8115 13.8223L18.3121 12.3285L22.6969 3.16495L24.4592 4.04203L19.8115 13.8223Z" fill="#1E3CD4"/>
<path d="M20.5826 2.11247L17.7795 9.68853L16.8058 6.78522L18.7331 1.67572L20.5826 2.11247Z" fill="#1E3CD4"/>
</svg>
